<svg xmlns="http://www.w3.org/2000/svg" version="1.1" xmlns:xlink="http://www.w3.org/1999/xlink" xmlns:svgjs="http://svgjs.com/svgjs" width="4065" height="300" transform="matrix(1,0,0,1,0,0)">
  <text font-family="DM Sans" font-size="260" text-anchor="left" x="310" charspacing="20px">
    <tspan dy="239.20000000000002" x="310">Abstract | Help Center</tspan>
  </text>
  <path transform="matrix(0.7071067811865476,0.7071067811865475,-0.7071067811865475,0.7071067811865476,150,8.58)" d="M100,125A25,25,0,1,0,150,125A25,25,0,1,0,100,125M50,75A25,25,0,1,0,100,75A25,25,0,1,0,50,75M50,0L100,0L100,50L50,50ZM100,0L150,0L150,50L100,50ZM150,0L175,0A24.999999999999996,24.999999999999996,90,0,1,200,25L200,25A25.000000000000007,25.000000000000007,-270,0,1,175,50L150,50ZM100,150L125,150A24.999999999999996,24.999999999999996,90,0,1,150,175L150,175A25.000000000000007,25.000000000000007,-270,0,1,125,200L100,200ZM50,150L100,150L100,200L50,200ZM0,150L50,150L50,200L25,200A24.999999999999996,24.999999999999996,90,0,1,0,175ZM0,100L50,100L50,150L0,150ZM0,50L50,50L50,100L0,100ZM0,25A24.999999999999996,24.999999999999996,90,0,1,25,0L50,0L50,50L0,50Z"/>
</svg>